# File created by Blade
# Date/Time:  Tue Sep 23 19:06:47 2014
# Frame Rate: 120.000 fps
#------------------------------------------------------
:FULLY-SPECIFIED
:DEGREES
801
root 1.178517 33.523250 -0.702707 52.641760 -24.213513 -24.199255
Spine -34.669923 17.911516 10.918796
Head -6.879751 7.168148 -0.690824
LeftShoulder -18.232034 28.442439 35.042858
LeftArm 43.954925 -63.893698 -35.633182
LeftForeArm 97.644263 -0.000000 3.849149
LeftHand -18.265760 -0.000000 64.738048
LeftHandThumb1 -26.253704 0.000000 33.147579
RightShoulder 0.855118 -30.237609 -13.768113
RightArm 70.339853 11.584723 93.406821
RightForeArm 63.887819 -0.000000 7.571454
RightHand 19.132766 -0.000000 -8.868816
RightHandThumb1 -24.326973 -0.000000 -32.862282
LeftUpLeg -33.664037 11.021842 11.778117
LeftLeg 14.297824 -0.000000 -0.000000
LeftFoot -8.693548 16.256360 6.852723
LeftToeBase -10.342388 -0.000000 0.000000
RightUpLeg -80.681346 -4.343355 10.665100
RightLeg 20.860313 -0.000000 -0.000000
RightFoot 30.185470 -1.279728 19.159496
RightToeBase 26.498483 -0.000000 -0.000000
802
root 1.008445 33.495972 -0.586944 52.277091 -23.785709 -23.702387
Spine -34.759321 17.163478 10.969903
Head -6.435968 6.990941 -0.415445
LeftShoulder -18.152318 28.587358 34.912393
LeftArm 44.296753 -63.925663 -36.513262
LeftForeArm 97.566822 -0.000000 4.961221
LeftHand -18.040403 -0.000000 64.534120
LeftHandThumb1 -26.253704 0.000000 33.147579
RightShoulder 0.542090 -30.523520 -13.741159
RightArm 69.964420 10.727919 92.558231
RightForeArm 63.950051 0.000000 7.796151
RightHand 19.092430 0.000000 -8.869242
RightHandThumb1 -24.326973 -0.000000 -32.862282
LeftUpLeg -33.496771 10.792374 11.791152
LeftLeg 14.516458 -0.000000 -0.000000
LeftFoot -8.766752 16.046743 6.743203
LeftToeBase -10.618379 -0.000000 0.000000
RightUpLeg -79.001186 -3.393516 10.717682
RightLeg 20.571857 -0.000000 -0.000000
RightFoot 29.732518 -0.913352 20.888832
RightToeBase 25.211289 -0.000000 -0.000000
803
root 0.834356 33.461803 -0.463950 51.764815 -23.261683 -23.099603
Spine -34.766235 16.305362 11.027971
Head -6.013910 6.802978 -0.179495
LeftShoulder -18.007558 28.681162 34.886716
LeftArm 44.733199 -63.950132 -37.629471
LeftForeArm 98.077596 -0.000000 6.083287
LeftHand -18.306091 -0.000000 64.485483
LeftHandThumb1 -26.253704 0.000000 33.147579
RightShoulder 0.232498 -30.762160 -13.726404
RightArm 69.582917 10.026655 91.969680
RightForeArm 63.897557 -0.000000 7.987694
RightHand 19.137435 0.000000 -8.958737
RightHandThumb1 -24.326973 -0.000000 -32.862282
LeftUpLeg -33.217288 10.509795 11.767071
LeftLeg 14.646221 -0.000000 -0.000000
LeftFoot -8.838584 15.773203 6.625582
LeftToeBase -10.900957 -0.000000 0.000000
RightUpLeg -77.269215 -2.574942 10.623935
RightLeg 20.271651 -0.000000 -0.000000
RightFoot 29.099012 -0.378110 22.314915
RightToeBase 24.237536 -0.000000 -0.000000
804
root 0.657068 33.426782 -0.338337 51.238721 -22.674782 -22.454241
Spine -34.783672 15.425151 11.087140
Head -5.619674 6.594196 0.004915
LeftShoulder -17.965871 28.976535 34.686817
LeftArm 45.584935 -64.089566 -39.056379
LeftForeArm 98.094986 0.000000 7.319947
LeftHand -18.104642 -0.000000 64.287517
LeftHandThumb1 -26.253704 0.000000 33.147579
RightShoulder -0.002800 -31.108242 -13.804275
RightArm 69.351903 9.496482 91.676495
RightForeArm 63.873171 -0.000000 8.033611
RightHand 19.387493 -0.000000 -8.923200
RightHandThumb1 -24.326973 -0.000000 -32.862282
LeftUpLeg -32.930663 10.282539 11.701644
LeftLeg 14.711048 -0.000000 -0.000000
LeftFoot -8.835045 15.498229 6.670579
LeftToeBase -11.259199 -0.000000 0.000000
RightUpLeg -75.577428 -1.801190 10.437599
RightLeg 19.918613 -0.000000 -0.000000
RightFoot 28.503323 0.123480 23.418503
RightToeBase 23.326485 -0.000000 -0.000000
805
root 0.483287 33.385367 -0.204575 50.674144 -22.001391 -21.707905
Spine -34.839748 14.546588 11.091116
Head -5.228874 6.214204 0.112076
LeftShoulder -17.828470 29.184831 34.486450
LeftArm 46.308143 -64.124409 -40.259637
LeftForeArm 98.427824 -0.000000 8.451863
LeftHand -18.175699 -0.000000 64.287922
LeftHandThumb1 -26.253704 0.000000 33.147579
RightShoulder -0.330310 -31.451474 -13.877677
RightArm 69.093002 9.065613 91.395690
RightForeArm 63.828253 -0.000000 8.010002
RightHand 19.073714 -0.000000 -8.405318
RightHandThumb1 -24.326973 -0.000000 -32.862282
LeftUpLeg -32.612022 10.067787 11.544382
LeftLeg 14.642696 -0.000000 -0.000000
LeftFoot -8.861995 15.048748 6.694164
LeftToeBase -11.551414 -0.000000 0.000000
RightUpLeg -73.949620 -1.104259 10.048473
RightLeg 19.554433 -0.000000 -0.000000
RightFoot 27.827093 0.132237 24.763933
RightToeBase 22.718989 -0.000000 -0.000000
806
root 0.305456 33.344069 -0.068602 50.144099 -21.129164 -20.975672
Spine -34.940788 13.618457 11.228484
Head -4.850360 5.829045 0.145492
LeftShoulder -17.681320 29.424313 34.268327
LeftArm 46.964332 -64.069128 -41.390016
LeftForeArm 98.487994 -0.000000 9.616352
LeftHand -17.980542 -0.000000 64.019572
LeftHandThumb1 -26.253704 0.000000 33.147579
RightShoulder -0.628817 -31.869651 -13.986546
RightArm 68.932029 8.762767 91.225234
RightForeArm 63.880388 -0.000000 7.893401
RightHand 19.212579 -0.000000 -8.297368
RightHandThumb1 -24.326973 -0.000000 -32.862282
LeftUpLeg -32.379107 9.847808 11.482519
LeftLeg 14.616323 -0.000000 -0.000000
LeftFoot -8.909520 14.535352 6.589542
LeftToeBase -11.942598 -0.000000 0.000000
RightUpLeg -72.382985 -0.514000 9.804734
RightLeg 19.154477 -0.000000 -0.000000
RightFoot 27.232264 -0.064003 25.919269
RightToeBase 21.958155 -0.000000 -0.000000
